<mxfile host="app.diagrams.net" agent="Mozilla/5.0 (Windows NT 10.0; Win64; x64) AppleWebKit/537.36 (KHTML, like Gecko) Chrome/140.0.0.0 Safari/537.36 Edg/140.0.0.0" version="28.2.0" pages="2">
  <diagram name="第 1 页" id="grWxHXJj6rzBnJHJz1EA">
    <mxGraphModel dx="1839" dy="1023" grid="1" gridSize="10" guides="1" tooltips="1" connect="1" arrows="1" fold="1" page="1" pageScale="1" pageWidth="827" pageHeight="1169" math="0" shadow="0">
      <root>
        <mxCell id="0" />
        <mxCell id="1" parent="0" />
        <mxCell id="7QD5l-WdNm-53nlI8r7u-1" value="" style="rounded=0;whiteSpace=wrap;html=1;shadow=1;opacity=20;" parent="1" vertex="1">
          <mxGeometry x="7" y="90" width="800" height="380" as="geometry" />
        </mxCell>
        <mxCell id="7QD5l-WdNm-53nlI8r7u-2" value="" style="rounded=0;whiteSpace=wrap;html=1;fillColor=#fad7ac;strokeColor=#b46504;" parent="1" vertex="1">
          <mxGeometry x="227" y="100" width="540" height="360" as="geometry" />
        </mxCell>
        <mxCell id="7QD5l-WdNm-53nlI8r7u-3" style="edgeStyle=elbowEdgeStyle;rounded=0;orthogonalLoop=1;jettySize=auto;html=1;exitX=1.008;exitY=0.454;exitDx=0;exitDy=0;exitPerimeter=0;entryX=0;entryY=0.5;entryDx=0;entryDy=0;curved=0;strokeWidth=1.5;endSize=3;" parent="1" source="7QD5l-WdNm-53nlI8r7u-5" target="7QD5l-WdNm-53nlI8r7u-6" edge="1">
          <mxGeometry relative="1" as="geometry" />
        </mxCell>
        <mxCell id="7QD5l-WdNm-53nlI8r7u-5" value="被中断的任务&amp;nbsp;" style="shape=tape;whiteSpace=wrap;html=1;strokeWidth=2;size=0.07407407407407407;fillColor=#bac8d3;strokeColor=#23445d;" parent="1" vertex="1">
          <mxGeometry x="47" y="160" width="60" height="270" as="geometry" />
        </mxCell>
        <mxCell id="7QD5l-WdNm-53nlI8r7u-6" value="硬件保存上下文" style="rounded=0;whiteSpace=wrap;html=1;fillColor=#b0e3e6;strokeColor=#0e8088;" parent="1" vertex="1">
          <mxGeometry x="147" y="120" width="60" height="40" as="geometry" />
        </mxCell>
        <mxCell id="7QD5l-WdNm-53nlI8r7u-7" value="硬件恢复上下文" style="rounded=0;whiteSpace=wrap;html=1;fillColor=#b0e3e6;strokeColor=#0e8088;" parent="1" vertex="1">
          <mxGeometry x="147" y="400" width="60" height="40" as="geometry" />
        </mxCell>
        <mxCell id="7QD5l-WdNm-53nlI8r7u-8" value="通用中断处理逻辑" style="rounded=0;whiteSpace=wrap;html=1;fillColor=#dae8fc;strokeColor=#6c8ebf;fontStyle=1" parent="1" vertex="1">
          <mxGeometry x="237" y="110" width="110" height="340" as="geometry" />
        </mxCell>
        <mxCell id="7QD5l-WdNm-53nlI8r7u-9" style="edgeStyle=orthogonalEdgeStyle;rounded=0;orthogonalLoop=1;jettySize=auto;html=1;exitX=1;exitY=0.5;exitDx=0;exitDy=0;entryX=0;entryY=0.5;entryDx=0;entryDy=0;endArrow=none;endFill=0;" parent="1" source="7QD5l-WdNm-53nlI8r7u-6" target="7QD5l-WdNm-53nlI8r7u-12" edge="1">
          <mxGeometry relative="1" as="geometry">
            <mxPoint x="247" y="140" as="sourcePoint" />
          </mxGeometry>
        </mxCell>
        <mxCell id="7QD5l-WdNm-53nlI8r7u-10" style="edgeStyle=orthogonalEdgeStyle;rounded=0;orthogonalLoop=1;jettySize=auto;html=1;exitX=1;exitY=0.5;exitDx=0;exitDy=0;entryX=0;entryY=0.5;entryDx=0;entryDy=0;endArrow=none;endFill=0;" parent="1" source="7QD5l-WdNm-53nlI8r7u-7" target="7QD5l-WdNm-53nlI8r7u-13" edge="1">
          <mxGeometry relative="1" as="geometry">
            <mxPoint x="247" y="420" as="sourcePoint" />
          </mxGeometry>
        </mxCell>
        <mxCell id="7QD5l-WdNm-53nlI8r7u-11" style="edgeStyle=orthogonalEdgeStyle;rounded=0;orthogonalLoop=1;jettySize=auto;html=1;exitX=1;exitY=0.5;exitDx=0;exitDy=0;entryX=0;entryY=0.5;entryDx=0;entryDy=0;" parent="1" source="7QD5l-WdNm-53nlI8r7u-12" target="7QD5l-WdNm-53nlI8r7u-30" edge="1">
          <mxGeometry relative="1" as="geometry" />
        </mxCell>
        <mxCell id="7QD5l-WdNm-53nlI8r7u-12" value="操作系统保存&lt;br&gt;上下文" style="rounded=0;whiteSpace=wrap;html=1;fillColor=#f8cecc;strokeColor=#b85450;" parent="1" vertex="1">
          <mxGeometry x="247" y="120" width="90" height="40" as="geometry" />
        </mxCell>
        <mxCell id="7QD5l-WdNm-53nlI8r7u-13" value="操作系统恢复&lt;br&gt;上下文" style="rounded=0;whiteSpace=wrap;html=1;fillColor=#f8cecc;strokeColor=#b85450;" parent="1" vertex="1">
          <mxGeometry x="247" y="400" width="90" height="40" as="geometry" />
        </mxCell>
        <mxCell id="7QD5l-WdNm-53nlI8r7u-14" style="edgeStyle=orthogonalEdgeStyle;rounded=0;orthogonalLoop=1;jettySize=auto;html=1;exitX=0.5;exitY=1;exitDx=0;exitDy=0;entryX=0.5;entryY=0;entryDx=0;entryDy=0;curved=1;" parent="1" source="7QD5l-WdNm-53nlI8r7u-30" target="7QD5l-WdNm-53nlI8r7u-17" edge="1">
          <mxGeometry relative="1" as="geometry" />
        </mxCell>
        <mxCell id="7QD5l-WdNm-53nlI8r7u-15" value="irq" style="edgeLabel;html=1;align=center;verticalAlign=middle;resizable=0;points=[];" parent="7QD5l-WdNm-53nlI8r7u-14" vertex="1" connectable="0">
          <mxGeometry x="-0.1385" y="-2" relative="1" as="geometry">
            <mxPoint as="offset" />
          </mxGeometry>
        </mxCell>
        <mxCell id="7QD5l-WdNm-53nlI8r7u-16" style="edgeStyle=orthogonalEdgeStyle;rounded=0;orthogonalLoop=1;jettySize=auto;html=1;exitX=0.5;exitY=1;exitDx=0;exitDy=0;entryX=0.5;entryY=0;entryDx=0;entryDy=0;" parent="1" source="7QD5l-WdNm-53nlI8r7u-17" target="7QD5l-WdNm-53nlI8r7u-23" edge="1">
          <mxGeometry relative="1" as="geometry" />
        </mxCell>
        <mxCell id="7QD5l-WdNm-53nlI8r7u-17" value="" style="rounded=0;whiteSpace=wrap;html=1;fillColor=#CCCCCC;" parent="1" vertex="1">
          <mxGeometry x="477" y="200" width="60" height="20" as="geometry" />
        </mxCell>
        <mxCell id="7QD5l-WdNm-53nlI8r7u-18" value="" style="rounded=0;whiteSpace=wrap;html=1;" parent="1" vertex="1">
          <mxGeometry x="417" y="200" width="60" height="20" as="geometry" />
        </mxCell>
        <mxCell id="7QD5l-WdNm-53nlI8r7u-19" value="" style="rounded=0;whiteSpace=wrap;html=1;" parent="1" vertex="1">
          <mxGeometry x="627" y="200" width="60" height="20" as="geometry" />
        </mxCell>
        <mxCell id="7QD5l-WdNm-53nlI8r7u-20" value="" style="rounded=0;whiteSpace=wrap;html=1;" parent="1" vertex="1">
          <mxGeometry x="537" y="200" width="60" height="20" as="geometry" />
        </mxCell>
        <mxCell id="7QD5l-WdNm-53nlI8r7u-21" value="irq_desc" style="text;html=1;strokeColor=none;fillColor=none;align=center;verticalAlign=middle;whiteSpace=wrap;rounded=0;" parent="1" vertex="1">
          <mxGeometry x="417" y="175" width="60" height="25" as="geometry" />
        </mxCell>
        <mxCell id="7QD5l-WdNm-53nlI8r7u-22" style="edgeStyle=orthogonalEdgeStyle;rounded=0;orthogonalLoop=1;jettySize=auto;html=1;exitX=0.25;exitY=1;exitDx=0;exitDy=0;entryX=0;entryY=0.5;entryDx=0;entryDy=0;" parent="1" source="7QD5l-WdNm-53nlI8r7u-23" target="7QD5l-WdNm-53nlI8r7u-27" edge="1">
          <mxGeometry relative="1" as="geometry" />
        </mxCell>
        <mxCell id="7QD5l-WdNm-53nlI8r7u-23" value="handle_irq" style="rounded=0;whiteSpace=wrap;html=1;" parent="1" vertex="1">
          <mxGeometry x="462" y="250" width="90" height="20" as="geometry" />
        </mxCell>
        <mxCell id="7QD5l-WdNm-53nlI8r7u-24" value="..." style="rounded=0;whiteSpace=wrap;html=1;opacity=0;" parent="1" vertex="1">
          <mxGeometry x="597" y="200" width="30" height="20" as="geometry" />
        </mxCell>
        <mxCell id="7QD5l-WdNm-53nlI8r7u-25" value="ISR" style="shape=hexagon;perimeter=hexagonPerimeter2;whiteSpace=wrap;html=1;fixedSize=1;" parent="1" vertex="1">
          <mxGeometry x="588" y="289" width="48" height="20" as="geometry" />
        </mxCell>
        <mxCell id="7QD5l-WdNm-53nlI8r7u-26" style="edgeStyle=orthogonalEdgeStyle;rounded=0;orthogonalLoop=1;jettySize=auto;html=1;exitX=1;exitY=0.5;exitDx=0;exitDy=0;entryX=0;entryY=0.5;entryDx=0;entryDy=0;" parent="1" source="7QD5l-WdNm-53nlI8r7u-27" target="7QD5l-WdNm-53nlI8r7u-25" edge="1">
          <mxGeometry relative="1" as="geometry" />
        </mxCell>
        <mxCell id="7QD5l-WdNm-53nlI8r7u-27" value="ISR" style="shape=hexagon;perimeter=hexagonPerimeter2;whiteSpace=wrap;html=1;fixedSize=1;" parent="1" vertex="1">
          <mxGeometry x="514" y="289" width="48" height="20" as="geometry" />
        </mxCell>
        <mxCell id="7QD5l-WdNm-53nlI8r7u-28" style="edgeStyle=orthogonalEdgeStyle;rounded=0;orthogonalLoop=1;jettySize=auto;html=1;exitX=0.5;exitY=1;exitDx=0;exitDy=0;entryX=1;entryY=0.5;entryDx=0;entryDy=0;" parent="1" source="7QD5l-WdNm-53nlI8r7u-29" target="7QD5l-WdNm-53nlI8r7u-13" edge="1">
          <mxGeometry relative="1" as="geometry" />
        </mxCell>
        <mxCell id="7QD5l-WdNm-53nlI8r7u-29" value="do_softirq" style="rounded=0;whiteSpace=wrap;html=1;fillColor=#ffcd28;gradientColor=#ffa500;strokeColor=#d79b00;" parent="1" vertex="1">
          <mxGeometry x="540" y="370" width="65" height="30" as="geometry" />
        </mxCell>
        <mxCell id="7QD5l-WdNm-53nlI8r7u-30" value="handle_domain_irq" style="rounded=0;whiteSpace=wrap;html=1;fillColor=#1ba1e2;fontColor=#ffffff;strokeColor=#006EAF;" parent="1" vertex="1">
          <mxGeometry x="447" y="125" width="120" height="30" as="geometry" />
        </mxCell>
        <mxCell id="7QD5l-WdNm-53nlI8r7u-31" value="..." style="rounded=0;whiteSpace=wrap;html=1;opacity=0;" parent="1" vertex="1">
          <mxGeometry x="644" y="288" width="30" height="20" as="geometry" />
        </mxCell>
        <mxCell id="7QD5l-WdNm-53nlI8r7u-32" value="" style="endArrow=blockThin;html=1;rounded=0;strokeWidth=2;endFill=1;" parent="1" edge="1">
          <mxGeometry width="50" height="50" relative="1" as="geometry">
            <mxPoint x="573" y="335" as="sourcePoint" />
            <mxPoint x="573" y="365" as="targetPoint" />
          </mxGeometry>
        </mxCell>
        <mxCell id="7QD5l-WdNm-53nlI8r7u-33" value="" style="shape=crossbar;whiteSpace=wrap;html=1;rounded=1;direction=south;" parent="1" vertex="1">
          <mxGeometry x="717" y="130" width="10" height="190" as="geometry" />
        </mxCell>
        <mxCell id="7QD5l-WdNm-53nlI8r7u-34" value="" style="shape=crossbar;whiteSpace=wrap;html=1;rounded=1;direction=south;" parent="1" vertex="1">
          <mxGeometry x="717" y="322" width="10" height="88" as="geometry" />
        </mxCell>
        <mxCell id="7QD5l-WdNm-53nlI8r7u-37" value="上半部" style="text;strokeColor=none;align=center;fillColor=none;html=1;verticalAlign=middle;whiteSpace=wrap;rounded=0;fontStyle=1" parent="1" vertex="1">
          <mxGeometry x="727" y="130" width="20" height="190" as="geometry" />
        </mxCell>
        <mxCell id="7QD5l-WdNm-53nlI8r7u-38" value="下半部" style="text;strokeColor=none;align=center;fillColor=none;html=1;verticalAlign=middle;whiteSpace=wrap;rounded=0;fontStyle=1" parent="1" vertex="1">
          <mxGeometry x="728" y="322" width="20" height="88" as="geometry" />
        </mxCell>
        <mxCell id="7QD5l-WdNm-53nlI8r7u-40" value="" style="endArrow=none;html=1;strokeWidth=2;rounded=0;" parent="1" edge="1">
          <mxGeometry width="50" height="50" relative="1" as="geometry">
            <mxPoint x="378" y="322" as="sourcePoint" />
            <mxPoint x="698" y="322" as="targetPoint" />
          </mxGeometry>
        </mxCell>
        <mxCell id="7QD5l-WdNm-53nlI8r7u-41" style="edgeStyle=orthogonalEdgeStyle;rounded=0;orthogonalLoop=1;jettySize=auto;html=1;exitX=0;exitY=0.5;exitDx=0;exitDy=0;entryX=0.125;entryY=0.553;entryDx=0;entryDy=0;entryPerimeter=0;strokeWidth=1.5;endSize=3;" parent="1" source="7QD5l-WdNm-53nlI8r7u-7" target="7QD5l-WdNm-53nlI8r7u-1" edge="1">
          <mxGeometry relative="1" as="geometry">
            <Array as="points">
              <mxPoint x="127" y="420" />
              <mxPoint x="127" y="300" />
            </Array>
          </mxGeometry>
        </mxCell>
        <mxCell id="wlHlYkWtf-oGAc-5vOxJ-6" style="edgeStyle=orthogonalEdgeStyle;rounded=0;orthogonalLoop=1;jettySize=auto;html=1;entryX=0;entryY=0.5;entryDx=0;entryDy=0;exitX=0;exitY=0.5;exitDx=0;exitDy=0;fontFamily=Times New Roman;" edge="1" parent="1" source="wlHlYkWtf-oGAc-5vOxJ-2" target="wlHlYkWtf-oGAc-5vOxJ-5">
          <mxGeometry relative="1" as="geometry" />
        </mxCell>
        <mxCell id="wlHlYkWtf-oGAc-5vOxJ-2" value=".macro kernel_ventry, el:req, ht:req, regsize:req, label:req&#xa;    b    el\el\ht\()_\regsize\()_\label" style="text;whiteSpace=wrap;fontSize=15;fontFamily=Times New Roman;" vertex="1" parent="1">
          <mxGeometry x="197" y="600" width="393" height="50" as="geometry" />
        </mxCell>
        <mxCell id="wlHlYkWtf-oGAc-5vOxJ-5" value="&lt;span style=&quot;color: rgba(0, 0, 0, 0.75); font-size: 16px; font-style: normal; font-variant-ligatures: no-common-ligatures; font-variant-caps: normal; font-weight: 400; letter-spacing: normal; orphans: 2; text-align: left; text-indent: 0px; text-transform: none; widows: 2; word-spacing: 0px; -webkit-text-stroke-width: 0px; white-space: normal; background-color: rgb(255, 255, 255); text-decoration-thickness: initial; text-decoration-style: initial; text-decoration-color: initial; float: none; display: inline !important;&quot;&gt;kernel_ventry 0, t, 64, irq&lt;/span&gt;&lt;div&gt;&lt;span style=&quot;color: rgba(0, 0, 0, 0.75); font-size: 16px; font-style: normal; font-variant-ligatures: no-common-ligatures; font-variant-caps: normal; font-weight: 400; letter-spacing: normal; orphans: 2; text-align: left; text-indent: 0px; text-transform: none; widows: 2; word-spacing: 0px; -webkit-text-stroke-width: 0px; white-space: normal; background-color: rgb(255, 255, 255); text-decoration-thickness: initial; text-decoration-style: initial; text-decoration-color: initial; float: none; display: inline !important;&quot;&gt;&lt;span style=&quot;white-space: pre;&quot;&gt;&#x9;&lt;/span&gt;&lt;/span&gt;&lt;span style=&quot;background-color: rgb(255, 255, 255); color: rgba(0, 0, 0, 0.75); font-size: 16px; font-variant-ligatures: no-common-ligatures;&quot;&gt;b&lt;span style=&quot;white-space: pre;&quot;&gt;&#x9;&lt;/span&gt;el0t_64_irq&lt;/span&gt;&lt;/div&gt;" style="text;whiteSpace=wrap;html=1;fontFamily=Times New Roman;" vertex="1" parent="1">
          <mxGeometry x="224" y="670" width="380" height="50" as="geometry" />
        </mxCell>
      </root>
    </mxGraphModel>
  </diagram>
  <diagram id="CWTKj-ijk-KN9Bv5cZnX" name="第 2 页">
    <mxGraphModel dx="935" dy="1018" grid="1" gridSize="10" guides="1" tooltips="1" connect="1" arrows="1" fold="1" page="1" pageScale="1" pageWidth="827" pageHeight="1169" math="0" shadow="0">
      <root>
        <mxCell id="0" />
        <mxCell id="1" parent="0" />
        <mxCell id="B-31jDNrfWkwfGe8eJNK-24" value="" style="rounded=0;whiteSpace=wrap;html=1;" vertex="1" parent="1">
          <mxGeometry x="90" y="150" width="620" height="340" as="geometry" />
        </mxCell>
        <mxCell id="B-31jDNrfWkwfGe8eJNK-25" value="udevd移除设备处理" style="rounded=1;whiteSpace=wrap;html=1;" vertex="1" parent="1">
          <mxGeometry x="250" y="180" width="160" height="40" as="geometry" />
        </mxCell>
        <mxCell id="B-31jDNrfWkwfGe8eJNK-26" value="udevd根据rules规则加载内核驱动模块" style="rounded=1;whiteSpace=wrap;html=1;" vertex="1" parent="1">
          <mxGeometry x="490" y="270" width="165" height="40" as="geometry" />
        </mxCell>
        <mxCell id="B-31jDNrfWkwfGe8eJNK-27" style="edgeStyle=orthogonalEdgeStyle;rounded=0;orthogonalLoop=1;jettySize=auto;html=1;exitX=0.5;exitY=0;exitDx=0;exitDy=0;exitPerimeter=0;entryX=0.5;entryY=1;entryDx=0;entryDy=0;" edge="1" parent="1" source="B-31jDNrfWkwfGe8eJNK-31" target="B-31jDNrfWkwfGe8eJNK-25">
          <mxGeometry relative="1" as="geometry">
            <mxPoint x="416.5" y="290" as="sourcePoint" />
            <mxPoint x="530" y="290" as="targetPoint" />
          </mxGeometry>
        </mxCell>
        <mxCell id="B-31jDNrfWkwfGe8eJNK-28" value="删除设备类型" style="edgeLabel;html=1;align=center;verticalAlign=middle;resizable=0;points=[];" vertex="1" connectable="0" parent="B-31jDNrfWkwfGe8eJNK-27">
          <mxGeometry x="-0.4571" relative="1" as="geometry">
            <mxPoint y="-9" as="offset" />
          </mxGeometry>
        </mxCell>
        <mxCell id="B-31jDNrfWkwfGe8eJNK-29" style="edgeStyle=orthogonalEdgeStyle;rounded=0;orthogonalLoop=1;jettySize=auto;html=1;exitX=1;exitY=0.5;exitDx=0;exitDy=0;exitPerimeter=0;entryX=0;entryY=0.5;entryDx=0;entryDy=0;" edge="1" parent="1" source="B-31jDNrfWkwfGe8eJNK-31" target="B-31jDNrfWkwfGe8eJNK-26">
          <mxGeometry relative="1" as="geometry" />
        </mxCell>
        <mxCell id="B-31jDNrfWkwfGe8eJNK-30" value="添加设备类型" style="edgeLabel;html=1;align=center;verticalAlign=middle;resizable=0;points=[];" vertex="1" connectable="0" parent="B-31jDNrfWkwfGe8eJNK-29">
          <mxGeometry x="-0.3721" y="2" relative="1" as="geometry">
            <mxPoint x="17" y="2" as="offset" />
          </mxGeometry>
        </mxCell>
        <mxCell id="B-31jDNrfWkwfGe8eJNK-31" value="udevd解析uevent" style="strokeWidth=2;html=1;shape=mxgraph.flowchart.decision;whiteSpace=wrap;" vertex="1" parent="1">
          <mxGeometry x="268" y="260" width="124" height="60" as="geometry" />
        </mxCell>
        <mxCell id="B-31jDNrfWkwfGe8eJNK-32" value="" style="endArrow=none;dashed=1;html=1;rounded=0;" edge="1" parent="1">
          <mxGeometry width="50" height="50" relative="1" as="geometry">
            <mxPoint x="120" y="400" as="sourcePoint" />
            <mxPoint x="680" y="400" as="targetPoint" />
          </mxGeometry>
        </mxCell>
        <mxCell id="B-31jDNrfWkwfGe8eJNK-33" value="udevd从kernel收到&lt;br style=&quot;border-color: var(--border-color);&quot;&gt;一个设备的uevent" style="rounded=1;whiteSpace=wrap;html=1;" vertex="1" parent="1">
          <mxGeometry x="250" y="340" width="160" height="40" as="geometry" />
        </mxCell>
        <mxCell id="B-31jDNrfWkwfGe8eJNK-34" style="edgeStyle=orthogonalEdgeStyle;rounded=0;orthogonalLoop=1;jettySize=auto;html=1;entryX=0.5;entryY=1;entryDx=0;entryDy=0;" edge="1" parent="1" source="B-31jDNrfWkwfGe8eJNK-36" target="B-31jDNrfWkwfGe8eJNK-33">
          <mxGeometry relative="1" as="geometry" />
        </mxCell>
        <mxCell id="B-31jDNrfWkwfGe8eJNK-35" value="netlink" style="edgeLabel;html=1;align=center;verticalAlign=middle;resizable=0;points=[];" vertex="1" connectable="0" parent="B-31jDNrfWkwfGe8eJNK-34">
          <mxGeometry y="3" relative="1" as="geometry">
            <mxPoint as="offset" />
          </mxGeometry>
        </mxCell>
        <mxCell id="B-31jDNrfWkwfGe8eJNK-36" value="内核扫描设备，向用户空间发送uevent事件" style="rounded=1;whiteSpace=wrap;html=1;" vertex="1" parent="1">
          <mxGeometry x="250" y="420" width="160" height="40" as="geometry" />
        </mxCell>
        <mxCell id="B-31jDNrfWkwfGe8eJNK-37" style="edgeStyle=orthogonalEdgeStyle;rounded=0;orthogonalLoop=1;jettySize=auto;html=1;exitX=0.5;exitY=0;exitDx=0;exitDy=0;entryX=0.5;entryY=1;entryDx=0;entryDy=0;entryPerimeter=0;" edge="1" parent="1" source="B-31jDNrfWkwfGe8eJNK-33" target="B-31jDNrfWkwfGe8eJNK-31">
          <mxGeometry relative="1" as="geometry" />
        </mxCell>
        <mxCell id="B-31jDNrfWkwfGe8eJNK-38" value="内核空间" style="text;html=1;align=center;verticalAlign=middle;resizable=0;points=[];autosize=1;strokeColor=none;fillColor=none;" vertex="1" parent="1">
          <mxGeometry x="120" y="400" width="70" height="30" as="geometry" />
        </mxCell>
        <mxCell id="B-31jDNrfWkwfGe8eJNK-39" value="用户空间" style="text;html=1;align=center;verticalAlign=middle;resizable=0;points=[];autosize=1;strokeColor=none;fillColor=none;" vertex="1" parent="1">
          <mxGeometry x="120" y="370" width="70" height="30" as="geometry" />
        </mxCell>
      </root>
    </mxGraphModel>
  </diagram>
</mxfile>
